<svg width="161" height="169" viewBox="0 0 161 169" fill="none" xmlns="http://www.w3.org/2000/svg">
<rect width="160" height="168" rx="6" fill="#83BCC1"/>
<path d="M25.9482 69.082L26.0801 71.877H25.7461C25.6816 71.3848 25.5938 71.0332 25.4824 70.8223C25.3008 70.4824 25.0576 70.2334 24.7529 70.0752C24.4541 69.9111 24.0586 69.8291 23.5664 69.8291H21.8877V78.9346C21.8877 79.667 21.9668 80.124 22.125 80.3057C22.3477 80.5518 22.6904 80.6748 23.1533 80.6748H23.5664V81H18.5127V80.6748H18.9346C19.4385 80.6748 19.7959 80.5225 20.0068 80.2178C20.1357 80.0303 20.2002 79.6025 20.2002 78.9346V69.8291H18.7676C18.2109 69.8291 17.8154 69.8701 17.5811 69.9521C17.2764 70.0635 17.0156 70.2773 16.7988 70.5938C16.582 70.9102 16.4531 71.3379 16.4121 71.877H16.0781L16.2188 69.082H25.9482ZM28.5146 68.502C28.7607 68.502 28.9688 68.5898 29.1387 68.7656C29.3145 68.9355 29.4023 69.1436 29.4023 69.3896C29.4023 69.6357 29.3145 69.8467 29.1387 70.0225C28.9688 70.1982 28.7607 70.2861 28.5146 70.2861C28.2686 70.2861 28.0576 70.1982 27.8818 70.0225C27.7061 69.8467 27.6182 69.6357 27.6182 69.3896C27.6182 69.1436 27.7031 68.9355 27.873 68.7656C28.0488 68.5898 28.2627 68.502 28.5146 68.502ZM29.2441 72.7119V79.1807C29.2441 79.6846 29.2793 80.0215 29.3496 80.1914C29.4258 80.3555 29.5342 80.4785 29.6748 80.5605C29.8213 80.6426 30.085 80.6836 30.4658 80.6836V81H26.5547V80.6836C26.9473 80.6836 27.2109 80.6455 27.3457 80.5693C27.4805 80.4932 27.5859 80.3672 27.6621 80.1914C27.7441 80.0156 27.7852 79.6787 27.7852 79.1807V76.0781C27.7852 75.2051 27.7588 74.6396 27.7061 74.3818C27.665 74.1943 27.6006 74.0654 27.5127 73.9951C27.4248 73.9189 27.3047 73.8809 27.1523 73.8809C26.9883 73.8809 26.7891 73.9248 26.5547 74.0127L26.4316 73.6963L28.8574 72.7119H29.2441ZM33.8145 70.3037V72.9492H35.6953V73.5645H33.8145V78.7852C33.8145 79.3066 33.8877 79.6582 34.0342 79.8398C34.1865 80.0215 34.3799 80.1123 34.6143 80.1123C34.8076 80.1123 34.9951 80.0537 35.1768 79.9365C35.3584 79.8135 35.499 79.6348 35.5986 79.4004H35.9414C35.7363 79.9746 35.4463 80.4082 35.0713 80.7012C34.6963 80.9883 34.3096 81.1318 33.9111 81.1318C33.6416 81.1318 33.3779 81.0586 33.1201 80.9121C32.8623 80.7598 32.6719 80.5459 32.5488 80.2705C32.4258 79.9893 32.3643 79.5586 32.3643 78.9785V73.5645H31.0898V73.2744C31.4121 73.1455 31.7402 72.9287 32.0742 72.624C32.4141 72.3135 32.7158 71.9473 32.9795 71.5254C33.1143 71.3027 33.3018 70.8955 33.542 70.3037H33.8145ZM41.0479 79.8398C40.2217 80.4785 39.7031 80.8477 39.4922 80.9473C39.1758 81.0938 38.8389 81.167 38.4814 81.167C37.9248 81.167 37.4648 80.9766 37.1016 80.5957C36.7441 80.2148 36.5654 79.7139 36.5654 79.0928C36.5654 78.7002 36.6533 78.3604 36.8291 78.0732C37.0693 77.6748 37.4854 77.2998 38.0771 76.9482C38.6748 76.5967 39.665 76.1689 41.0479 75.665V75.3486C41.0479 74.5459 40.9189 73.9951 40.6611 73.6963C40.4092 73.3975 40.04 73.248 39.5537 73.248C39.1846 73.248 38.8916 73.3477 38.6748 73.5469C38.4521 73.7461 38.3408 73.9746 38.3408 74.2324L38.3584 74.7422C38.3584 75.0117 38.2881 75.2197 38.1475 75.3662C38.0127 75.5127 37.834 75.5859 37.6113 75.5859C37.3945 75.5859 37.2158 75.5098 37.0752 75.3574C36.9404 75.2051 36.873 74.9971 36.873 74.7334C36.873 74.2295 37.1309 73.7666 37.6465 73.3447C38.1621 72.9229 38.8857 72.7119 39.8174 72.7119C40.5322 72.7119 41.1182 72.832 41.5752 73.0723C41.9209 73.2539 42.1758 73.5381 42.3398 73.9248C42.4453 74.1768 42.498 74.6924 42.498 75.4717V78.2051C42.498 78.9727 42.5127 79.4443 42.542 79.6201C42.5713 79.79 42.6182 79.9043 42.6826 79.9629C42.7529 80.0215 42.832 80.0508 42.9199 80.0508C43.0137 80.0508 43.0957 80.0303 43.166 79.9893C43.2891 79.9131 43.5264 79.6992 43.8779 79.3477V79.8398C43.2217 80.7188 42.5947 81.1582 41.9971 81.1582C41.71 81.1582 41.4814 81.0586 41.3115 80.8594C41.1416 80.6602 41.0537 80.3203 41.0479 79.8398ZM41.0479 79.2686V76.2012C40.1631 76.5527 39.5918 76.8018 39.334 76.9482C38.8711 77.2061 38.54 77.4756 38.3408 77.7568C38.1416 78.0381 38.042 78.3457 38.042 78.6797C38.042 79.1016 38.168 79.4531 38.4199 79.7344C38.6719 80.0098 38.9619 80.1475 39.29 80.1475C39.7354 80.1475 40.3213 79.8545 41.0479 79.2686ZM46.8311 74.417C47.7744 73.2803 48.6738 72.7119 49.5293 72.7119C49.9688 72.7119 50.3467 72.8232 50.6631 73.0459C50.9795 73.2627 51.2314 73.623 51.4189 74.127C51.5479 74.4785 51.6123 75.0176 51.6123 75.7441V79.1807C51.6123 79.6904 51.6533 80.0361 51.7354 80.2178C51.7998 80.3643 51.9023 80.4785 52.043 80.5605C52.1895 80.6426 52.4561 80.6836 52.8428 80.6836V81H48.8613V80.6836H49.0283C49.4033 80.6836 49.6641 80.6279 49.8105 80.5166C49.9629 80.3994 50.0684 80.2295 50.127 80.0068C50.1504 79.9189 50.1621 79.6436 50.1621 79.1807V75.8848C50.1621 75.1523 50.0654 74.6221 49.8721 74.2939C49.6846 73.96 49.3652 73.793 48.9141 73.793C48.2168 73.793 47.5225 74.1738 46.8311 74.9355V79.1807C46.8311 79.7256 46.8633 80.0625 46.9277 80.1914C47.0098 80.3613 47.1211 80.4873 47.2617 80.5693C47.4082 80.6455 47.7012 80.6836 48.1406 80.6836V81H44.1592V80.6836H44.335C44.7451 80.6836 45.0205 80.5811 45.1611 80.376C45.3076 80.165 45.3809 79.7666 45.3809 79.1807V76.1924C45.3809 75.2256 45.3574 74.6367 45.3105 74.4258C45.2695 74.2148 45.2021 74.0713 45.1084 73.9951C45.0205 73.9189 44.9004 73.8809 44.748 73.8809C44.584 73.8809 44.3877 73.9248 44.1592 74.0127L44.0273 73.6963L46.4531 72.7119H46.8311V74.417ZM55.5322 68.502C55.7783 68.502 55.9863 68.5898 56.1562 68.7656C56.332 68.9355 56.4199 69.1436 56.4199 69.3896C56.4199 69.6357 56.332 69.8467 56.1562 70.0225C55.9863 70.1982 55.7783 70.2861 55.5322 70.2861C55.2861 70.2861 55.0752 70.1982 54.8994 70.0225C54.7236 69.8467 54.6357 69.6357 54.6357 69.3896C54.6357 69.1436 54.7207 68.9355 54.8906 68.7656C55.0664 68.5898 55.2803 68.502 55.5322 68.502ZM56.2617 72.7119V79.1807C56.2617 79.6846 56.2969 80.0215 56.3672 80.1914C56.4434 80.3555 56.5518 80.4785 56.6924 80.5605C56.8389 80.6426 57.1025 80.6836 57.4834 80.6836V81H53.5723V80.6836C53.9648 80.6836 54.2285 80.6455 54.3633 80.5693C54.498 80.4932 54.6035 80.3672 54.6797 80.1914C54.7617 80.0156 54.8027 79.6787 54.8027 79.1807V76.0781C54.8027 75.2051 54.7764 74.6396 54.7236 74.3818C54.6826 74.1943 54.6182 74.0654 54.5303 73.9951C54.4424 73.9189 54.3223 73.8809 54.1699 73.8809C54.0059 73.8809 53.8066 73.9248 53.5723 74.0127L53.4492 73.6963L55.875 72.7119H56.2617ZM65.5518 72.9492V77.8271C65.5518 78.7588 65.5723 79.3301 65.6133 79.541C65.6602 79.7461 65.7305 79.8896 65.8242 79.9717C65.9238 80.0537 66.0381 80.0947 66.167 80.0947C66.3486 80.0947 66.5537 80.0449 66.7822 79.9453L66.9053 80.2529L64.4971 81.2461H64.1016V79.541C63.4102 80.291 62.8828 80.7627 62.5195 80.9561C62.1562 81.1494 61.7725 81.2461 61.3682 81.2461C60.917 81.2461 60.5244 81.1172 60.1904 80.8594C59.8623 80.5957 59.6338 80.2588 59.5049 79.8486C59.376 79.4385 59.3115 78.8584 59.3115 78.1084V74.5137C59.3115 74.1328 59.2705 73.8691 59.1885 73.7227C59.1064 73.5762 58.9834 73.4648 58.8193 73.3887C58.6611 73.3066 58.3711 73.2686 57.9492 73.2744V72.9492H60.7705V78.3369C60.7705 79.0869 60.8994 79.5791 61.1572 79.8135C61.4209 80.0479 61.7373 80.165 62.1064 80.165C62.3584 80.165 62.6426 80.0859 62.959 79.9277C63.2812 79.7695 63.6621 79.4678 64.1016 79.0225V74.4609C64.1016 74.0039 64.0166 73.6963 63.8467 73.5381C63.6826 73.374 63.3369 73.2861 62.8096 73.2744V72.9492H65.5518ZM69.8848 74.4258C70.4707 73.8398 70.8164 73.5029 70.9219 73.415C71.1855 73.1924 71.4697 73.0195 71.7744 72.8965C72.0791 72.7734 72.3809 72.7119 72.6797 72.7119C73.1836 72.7119 73.6172 72.8584 73.9805 73.1514C74.3438 73.4443 74.5869 73.8691 74.71 74.4258C75.3135 73.7227 75.8232 73.2627 76.2393 73.0459C76.6553 72.8232 77.083 72.7119 77.5225 72.7119C77.9502 72.7119 78.3281 72.8232 78.6562 73.0459C78.9902 73.2627 79.2539 73.6201 79.4473 74.1182C79.5762 74.458 79.6406 74.9912 79.6406 75.7178V79.1807C79.6406 79.6846 79.6787 80.0303 79.7549 80.2178C79.8135 80.3467 79.9219 80.458 80.0801 80.5518C80.2383 80.6396 80.4961 80.6836 80.8535 80.6836V81H76.8809V80.6836H77.0479C77.3936 80.6836 77.6631 80.6162 77.8564 80.4814C77.9912 80.3877 78.0879 80.2383 78.1465 80.0332C78.1699 79.9336 78.1816 79.6494 78.1816 79.1807V75.7178C78.1816 75.0615 78.1025 74.5986 77.9443 74.3291C77.7158 73.9541 77.3496 73.7666 76.8457 73.7666C76.5352 73.7666 76.2217 73.8457 75.9053 74.0039C75.5947 74.1562 75.2168 74.4434 74.7715 74.8652L74.7539 74.9619L74.7715 75.3398V79.1807C74.7715 79.7314 74.8008 80.0742 74.8594 80.209C74.9238 80.3438 75.041 80.458 75.2109 80.5518C75.3809 80.6396 75.6709 80.6836 76.0811 80.6836V81H72.0117V80.6836C72.457 80.6836 72.7617 80.6309 72.9258 80.5254C73.0957 80.4199 73.2129 80.2617 73.2773 80.0508C73.3066 79.9512 73.3213 79.6611 73.3213 79.1807V75.7178C73.3213 75.0615 73.2246 74.5898 73.0312 74.3027C72.7734 73.9277 72.4131 73.7402 71.9502 73.7402C71.6338 73.7402 71.3203 73.8252 71.0098 73.9951C70.5234 74.2529 70.1484 74.543 69.8848 74.8652V79.1807C69.8848 79.708 69.9199 80.0508 69.9902 80.209C70.0664 80.3672 70.1748 80.4873 70.3154 80.5693C70.4619 80.6455 70.7549 80.6836 71.1943 80.6836V81H67.2129V80.6836C67.582 80.6836 67.8398 80.6455 67.9863 80.5693C68.1328 80.4873 68.2441 80.3613 68.3203 80.1914C68.3965 80.0156 68.4346 79.6787 68.4346 79.1807V76.1045C68.4346 75.2197 68.4082 74.6484 68.3555 74.3906C68.3145 74.1973 68.25 74.0654 68.1621 73.9951C68.0742 73.9189 67.9541 73.8809 67.8018 73.8809C67.6377 73.8809 67.4414 73.9248 67.2129 74.0127L67.0811 73.6963L69.5068 72.7119H69.8848V74.4258ZM85.749 81V80.6748H86.1973C86.7012 80.6748 87.0586 80.5137 87.2695 80.1914C87.3984 79.998 87.4629 79.5645 87.4629 78.8906V71.1914C87.4629 70.4473 87.3809 69.9814 87.2168 69.7939C86.9883 69.5361 86.6484 69.4072 86.1973 69.4072H85.749V69.082H90.6006C92.3818 69.082 93.7354 69.2842 94.6611 69.6885C95.5928 70.0928 96.3398 70.7666 96.9023 71.71C97.4707 72.6533 97.7549 73.7432 97.7549 74.9795C97.7549 76.6377 97.251 78.0234 96.2432 79.1367C95.1123 80.3789 93.3896 81 91.0752 81H85.749ZM89.1504 80.1387C89.8945 80.3027 90.5186 80.3848 91.0225 80.3848C92.3818 80.3848 93.5098 79.9072 94.4062 78.9521C95.3027 77.9971 95.751 76.7021 95.751 75.0674C95.751 73.4209 95.3027 72.123 94.4062 71.1738C93.5098 70.2246 92.3584 69.75 90.9521 69.75C90.4248 69.75 89.8242 69.835 89.1504 70.0049V80.1387ZM101.06 68.502C101.306 68.502 101.514 68.5898 101.684 68.7656C101.859 68.9355 101.947 69.1436 101.947 69.3896C101.947 69.6357 101.859 69.8467 101.684 70.0225C101.514 70.1982 101.306 70.2861 101.06 70.2861C100.813 70.2861 100.603 70.1982 100.427 70.0225C100.251 69.8467 100.163 69.6357 100.163 69.3896C100.163 69.1436 100.248 68.9355 100.418 68.7656C100.594 68.5898 100.808 68.502 101.06 68.502ZM101.789 72.7119V79.1807C101.789 79.6846 101.824 80.0215 101.895 80.1914C101.971 80.3555 102.079 80.4785 102.22 80.5605C102.366 80.6426 102.63 80.6836 103.011 80.6836V81H99.0996V80.6836C99.4922 80.6836 99.7559 80.6455 99.8906 80.5693C100.025 80.4932 100.131 80.3672 100.207 80.1914C100.289 80.0156 100.33 79.6787 100.33 79.1807V76.0781C100.33 75.2051 100.304 74.6396 100.251 74.3818C100.21 74.1943 100.146 74.0654 100.058 73.9951C99.9697 73.9189 99.8496 73.8809 99.6973 73.8809C99.5332 73.8809 99.334 73.9248 99.0996 74.0127L98.9766 73.6963L101.402 72.7119H101.789ZM107.959 72.7119C109.178 72.7119 110.156 73.1748 110.895 74.1006C111.521 74.8916 111.835 75.7998 111.835 76.8252C111.835 77.5459 111.662 78.2754 111.316 79.0137C110.971 79.752 110.493 80.3086 109.884 80.6836C109.28 81.0586 108.606 81.2461 107.862 81.2461C106.649 81.2461 105.686 80.7627 104.971 79.7959C104.367 78.9814 104.065 78.0674 104.065 77.0537C104.065 76.3154 104.247 75.583 104.61 74.8564C104.979 74.124 105.463 73.585 106.061 73.2393C106.658 72.8877 107.291 72.7119 107.959 72.7119ZM107.687 73.2832C107.376 73.2832 107.062 73.377 106.746 73.5645C106.436 73.7461 106.184 74.0684 105.99 74.5312C105.797 74.9941 105.7 75.5889 105.7 76.3154C105.7 77.4873 105.932 78.498 106.395 79.3477C106.863 80.1973 107.479 80.6221 108.24 80.6221C108.809 80.6221 109.277 80.3877 109.646 79.9189C110.016 79.4502 110.2 78.6445 110.2 77.502C110.2 76.0723 109.893 74.9473 109.277 74.127C108.861 73.5645 108.331 73.2832 107.687 73.2832ZM112.696 72.9492H116.484V73.2744C116.244 73.2744 116.074 73.3154 115.975 73.3975C115.881 73.4795 115.834 73.5879 115.834 73.7227C115.834 73.8633 115.937 74.0801 116.142 74.373C116.206 74.4668 116.303 74.6133 116.432 74.8125L117.003 75.7266L117.662 74.8125C118.084 74.2324 118.295 73.8662 118.295 73.7139C118.295 73.5908 118.245 73.4883 118.146 73.4062C118.046 73.3184 117.885 73.2744 117.662 73.2744V72.9492H120.387V73.2744C120.1 73.292 119.851 73.3711 119.64 73.5117C119.353 73.7109 118.96 74.1445 118.462 74.8125L117.363 76.2803L119.367 79.1631C119.859 79.8721 120.211 80.2998 120.422 80.4463C120.633 80.5869 120.905 80.666 121.239 80.6836V81H117.442V80.6836C117.706 80.6836 117.911 80.625 118.058 80.5078C118.169 80.4258 118.225 80.3174 118.225 80.1826C118.225 80.0479 118.037 79.708 117.662 79.1631L116.484 77.4404L115.192 79.1631C114.794 79.6963 114.595 80.0127 114.595 80.1123C114.595 80.2529 114.659 80.3818 114.788 80.499C114.923 80.6104 115.122 80.6719 115.386 80.6836V81H112.758V80.6836C112.969 80.6543 113.153 80.5811 113.312 80.4639C113.534 80.2939 113.909 79.8604 114.437 79.1631L116.124 76.9219L114.595 74.707C114.161 74.0742 113.824 73.6787 113.584 73.5205C113.35 73.3564 113.054 73.2744 112.696 73.2744V72.9492ZM124.069 68.502C124.315 68.502 124.523 68.5898 124.693 68.7656C124.869 68.9355 124.957 69.1436 124.957 69.3896C124.957 69.6357 124.869 69.8467 124.693 70.0225C124.523 70.1982 124.315 70.2861 124.069 70.2861C123.823 70.2861 123.612 70.1982 123.437 70.0225C123.261 69.8467 123.173 69.6357 123.173 69.3896C123.173 69.1436 123.258 68.9355 123.428 68.7656C123.604 68.5898 123.817 68.502 124.069 68.502ZM124.799 72.7119V79.1807C124.799 79.6846 124.834 80.0215 124.904 80.1914C124.98 80.3555 125.089 80.4785 125.229 80.5605C125.376 80.6426 125.64 80.6836 126.021 80.6836V81H122.109V80.6836C122.502 80.6836 122.766 80.6455 122.9 80.5693C123.035 80.4932 123.141 80.3672 123.217 80.1914C123.299 80.0156 123.34 79.6787 123.34 79.1807V76.0781C123.34 75.2051 123.313 74.6396 123.261 74.3818C123.22 74.1943 123.155 74.0654 123.067 73.9951C122.979 73.9189 122.859 73.8809 122.707 73.8809C122.543 73.8809 122.344 73.9248 122.109 74.0127L121.986 73.6963L124.412 72.7119H124.799ZM132.718 80.0947C132.325 80.5049 131.941 80.8008 131.566 80.9824C131.191 81.1582 130.787 81.2461 130.354 81.2461C129.475 81.2461 128.707 80.8799 128.051 80.1475C127.395 79.4092 127.066 78.4629 127.066 77.3086C127.066 76.1543 127.43 75.0996 128.156 74.1445C128.883 73.1836 129.817 72.7031 130.96 72.7031C131.669 72.7031 132.255 72.9287 132.718 73.3799V71.8945C132.718 70.9746 132.694 70.4092 132.647 70.1982C132.606 69.9873 132.539 69.8438 132.445 69.7676C132.352 69.6914 132.234 69.6533 132.094 69.6533C131.941 69.6533 131.739 69.7002 131.487 69.7939L131.373 69.4863L133.772 68.502H134.168V77.8096C134.168 78.7529 134.188 79.3301 134.229 79.541C134.276 79.7461 134.347 79.8896 134.44 79.9717C134.54 80.0537 134.654 80.0947 134.783 80.0947C134.941 80.0947 135.152 80.0449 135.416 79.9453L135.513 80.2529L133.122 81.2461H132.718V80.0947ZM132.718 79.4795V75.3311C132.683 74.9326 132.577 74.5693 132.401 74.2412C132.226 73.9131 131.991 73.667 131.698 73.5029C131.411 73.333 131.13 73.248 130.854 73.248C130.339 73.248 129.879 73.4795 129.475 73.9424C128.941 74.5518 128.675 75.4424 128.675 76.6143C128.675 77.7979 128.933 78.7061 129.448 79.3389C129.964 79.9658 130.538 80.2793 131.171 80.2793C131.704 80.2793 132.22 80.0127 132.718 79.4795ZM137.385 75.9814C137.379 77.1768 137.669 78.1143 138.255 78.7939C138.841 79.4736 139.529 79.8135 140.32 79.8135C140.848 79.8135 141.305 79.6699 141.691 79.3828C142.084 79.0898 142.412 78.5918 142.676 77.8887L142.948 78.0645C142.825 78.8672 142.468 79.5996 141.876 80.2617C141.284 80.918 140.543 81.2461 139.652 81.2461C138.686 81.2461 137.856 80.8711 137.165 80.1211C136.479 79.3652 136.137 78.3516 136.137 77.0801C136.137 75.7031 136.488 74.6309 137.191 73.8633C137.9 73.0898 138.788 72.7031 139.854 72.7031C140.757 72.7031 141.498 73.002 142.078 73.5996C142.658 74.1914 142.948 74.9854 142.948 75.9814H137.385ZM137.385 75.4717H141.111C141.082 74.9561 141.021 74.5928 140.927 74.3818C140.78 74.0537 140.561 73.7959 140.268 73.6084C139.98 73.4209 139.679 73.3271 139.362 73.3271C138.876 73.3271 138.439 73.5176 138.053 73.8984C137.672 74.2734 137.449 74.7979 137.385 75.4717ZM29.2441 90.082H32.4785L39.7646 99.0205V92.1475C39.7646 91.415 39.6826 90.958 39.5186 90.7764C39.3018 90.5303 38.959 90.4072 38.4902 90.4072H38.0771V90.082H42.2256V90.4072H41.8037C41.2998 90.4072 40.9424 90.5596 40.7314 90.8643C40.6025 91.0518 40.5381 91.4795 40.5381 92.1475V102.193H40.2217L32.3643 92.5957V99.9346C32.3643 100.667 32.4434 101.124 32.6016 101.306C32.8242 101.552 33.167 101.675 33.6299 101.675H34.0518V102H29.9033V101.675H30.3164C30.8262 101.675 31.1865 101.522 31.3975 101.218C31.5264 101.03 31.5908 100.603 31.5908 99.9346V91.6465C31.2451 91.2422 30.9814 90.9756 30.7998 90.8467C30.624 90.7178 30.3633 90.5977 30.0176 90.4863C29.8477 90.4336 29.5898 90.4072 29.2441 90.4072V90.082ZM47.6133 100.84C46.7871 101.479 46.2686 101.848 46.0576 101.947C45.7412 102.094 45.4043 102.167 45.0469 102.167C44.4902 102.167 44.0303 101.977 43.667 101.596C43.3096 101.215 43.1309 100.714 43.1309 100.093C43.1309 99.7002 43.2188 99.3604 43.3945 99.0732C43.6348 98.6748 44.0508 98.2998 44.6426 97.9482C45.2402 97.5967 46.2305 97.1689 47.6133 96.665V96.3486C47.6133 95.5459 47.4844 94.9951 47.2266 94.6963C46.9746 94.3975 46.6055 94.248 46.1191 94.248C45.75 94.248 45.457 94.3477 45.2402 94.5469C45.0176 94.7461 44.9062 94.9746 44.9062 95.2324L44.9238 95.7422C44.9238 96.0117 44.8535 96.2197 44.7129 96.3662C44.5781 96.5127 44.3994 96.5859 44.1768 96.5859C43.96 96.5859 43.7812 96.5098 43.6406 96.3574C43.5059 96.2051 43.4385 95.9971 43.4385 95.7334C43.4385 95.2295 43.6963 94.7666 44.2119 94.3447C44.7275 93.9229 45.4512 93.7119 46.3828 93.7119C47.0977 93.7119 47.6836 93.832 48.1406 94.0723C48.4863 94.2539 48.7412 94.5381 48.9053 94.9248C49.0107 95.1768 49.0635 95.6924 49.0635 96.4717V99.2051C49.0635 99.9727 49.0781 100.444 49.1074 100.62C49.1367 100.79 49.1836 100.904 49.248 100.963C49.3184 101.021 49.3975 101.051 49.4854 101.051C49.5791 101.051 49.6611 101.03 49.7314 100.989C49.8545 100.913 50.0918 100.699 50.4434 100.348V100.84C49.7871 101.719 49.1602 102.158 48.5625 102.158C48.2754 102.158 48.0469 102.059 47.877 101.859C47.707 101.66 47.6191 101.32 47.6133 100.84ZM47.6133 100.269V97.2012C46.7285 97.5527 46.1572 97.8018 45.8994 97.9482C45.4365 98.2061 45.1055 98.4756 44.9062 98.7568C44.707 99.0381 44.6074 99.3457 44.6074 99.6797C44.6074 100.102 44.7334 100.453 44.9854 100.734C45.2373 101.01 45.5273 101.147 45.8555 101.147C46.3008 101.147 46.8867 100.854 47.6133 100.269ZM53.3965 95.417C54.3398 94.2803 55.2393 93.7119 56.0947 93.7119C56.5342 93.7119 56.9121 93.8232 57.2285 94.0459C57.5449 94.2627 57.7969 94.623 57.9844 95.127C58.1133 95.4785 58.1777 96.0176 58.1777 96.7441V100.181C58.1777 100.69 58.2188 101.036 58.3008 101.218C58.3652 101.364 58.4678 101.479 58.6084 101.561C58.7549 101.643 59.0215 101.684 59.4082 101.684V102H55.4268V101.684H55.5938C55.9688 101.684 56.2295 101.628 56.376 101.517C56.5283 101.399 56.6338 101.229 56.6924 101.007C56.7158 100.919 56.7275 100.644 56.7275 100.181V96.8848C56.7275 96.1523 56.6309 95.6221 56.4375 95.2939C56.25 94.96 55.9307 94.793 55.4795 94.793C54.7822 94.793 54.0879 95.1738 53.3965 95.9355V100.181C53.3965 100.726 53.4287 101.062 53.4932 101.191C53.5752 101.361 53.6865 101.487 53.8271 101.569C53.9736 101.646 54.2666 101.684 54.7061 101.684V102H50.7246V101.684H50.9004C51.3105 101.684 51.5859 101.581 51.7266 101.376C51.873 101.165 51.9463 100.767 51.9463 100.181V97.1924C51.9463 96.2256 51.9229 95.6367 51.876 95.4258C51.835 95.2148 51.7676 95.0713 51.6738 94.9951C51.5859 94.9189 51.4658 94.8809 51.3135 94.8809C51.1494 94.8809 50.9531 94.9248 50.7246 95.0127L50.5928 94.6963L53.0186 93.7119H53.3965V95.417ZM63.9873 93.7119C65.2061 93.7119 66.1846 94.1748 66.9229 95.1006C67.5498 95.8916 67.8633 96.7998 67.8633 97.8252C67.8633 98.5459 67.6904 99.2754 67.3447 100.014C66.999 100.752 66.5215 101.309 65.9121 101.684C65.3086 102.059 64.6348 102.246 63.8906 102.246C62.6777 102.246 61.7139 101.763 60.999 100.796C60.3955 99.9814 60.0938 99.0674 60.0938 98.0537C60.0938 97.3154 60.2754 96.583 60.6387 95.8564C61.0078 95.124 61.4912 94.585 62.0889 94.2393C62.6865 93.8877 63.3193 93.7119 63.9873 93.7119ZM63.7148 94.2832C63.4043 94.2832 63.0908 94.377 62.7744 94.5645C62.4639 94.7461 62.2119 95.0684 62.0186 95.5312C61.8252 95.9941 61.7285 96.5889 61.7285 97.3154C61.7285 98.4873 61.96 99.498 62.4229 100.348C62.8916 101.197 63.5068 101.622 64.2686 101.622C64.8369 101.622 65.3057 101.388 65.6748 100.919C66.0439 100.45 66.2285 99.6445 66.2285 98.502C66.2285 97.0723 65.9209 95.9473 65.3057 95.127C64.8896 94.5645 64.3594 94.2832 63.7148 94.2832ZM68.4697 94.749L70.9482 93.7471H71.2822V95.6279C71.6982 94.9189 72.1143 94.4238 72.5303 94.1426C72.9521 93.8555 73.3945 93.7119 73.8574 93.7119C74.666 93.7119 75.3398 94.0283 75.8789 94.6611C76.541 95.4346 76.8721 96.4424 76.8721 97.6846C76.8721 99.0732 76.4736 100.222 75.6768 101.13C75.0205 101.874 74.1943 102.246 73.1982 102.246C72.7646 102.246 72.3896 102.185 72.0732 102.062C71.8389 101.974 71.5752 101.798 71.2822 101.534V103.986C71.2822 104.537 71.3145 104.886 71.3789 105.032C71.4492 105.185 71.5664 105.305 71.7305 105.393C71.9004 105.48 72.2051 105.524 72.6445 105.524V105.85H68.4258V105.524H68.6455C68.9678 105.53 69.2432 105.469 69.4717 105.34C69.583 105.275 69.668 105.17 69.7266 105.023C69.791 104.883 69.8232 104.52 69.8232 103.934V96.3223C69.8232 95.8008 69.7998 95.4697 69.7529 95.3291C69.7061 95.1885 69.6299 95.083 69.5244 95.0127C69.4248 94.9424 69.2871 94.9072 69.1113 94.9072C68.9707 94.9072 68.792 94.9482 68.5752 95.0303L68.4697 94.749ZM71.2822 96.1465V99.1523C71.2822 99.8027 71.3086 100.23 71.3613 100.436C71.4434 100.775 71.6426 101.074 71.959 101.332C72.2812 101.59 72.6855 101.719 73.1719 101.719C73.7578 101.719 74.2324 101.49 74.5957 101.033C75.0703 100.436 75.3076 99.5947 75.3076 98.5107C75.3076 97.2803 75.0381 96.334 74.499 95.6719C74.124 95.2148 73.6787 94.9863 73.1631 94.9863C72.8818 94.9863 72.6035 95.0566 72.3281 95.1973C72.1172 95.3027 71.7686 95.6191 71.2822 96.1465ZM82.6113 100.84C81.7852 101.479 81.2666 101.848 81.0557 101.947C80.7393 102.094 80.4023 102.167 80.0449 102.167C79.4883 102.167 79.0283 101.977 78.665 101.596C78.3076 101.215 78.1289 100.714 78.1289 100.093C78.1289 99.7002 78.2168 99.3604 78.3926 99.0732C78.6328 98.6748 79.0488 98.2998 79.6406 97.9482C80.2383 97.5967 81.2285 97.1689 82.6113 96.665V96.3486C82.6113 95.5459 82.4824 94.9951 82.2246 94.6963C81.9727 94.3975 81.6035 94.248 81.1172 94.248C80.748 94.248 80.4551 94.3477 80.2383 94.5469C80.0156 94.7461 79.9043 94.9746 79.9043 95.2324L79.9219 95.7422C79.9219 96.0117 79.8516 96.2197 79.7109 96.3662C79.5762 96.5127 79.3975 96.5859 79.1748 96.5859C78.958 96.5859 78.7793 96.5098 78.6387 96.3574C78.5039 96.2051 78.4365 95.9971 78.4365 95.7334C78.4365 95.2295 78.6943 94.7666 79.21 94.3447C79.7256 93.9229 80.4492 93.7119 81.3809 93.7119C82.0957 93.7119 82.6816 93.832 83.1387 94.0723C83.4844 94.2539 83.7393 94.5381 83.9033 94.9248C84.0088 95.1768 84.0615 95.6924 84.0615 96.4717V99.2051C84.0615 99.9727 84.0762 100.444 84.1055 100.62C84.1348 100.79 84.1816 100.904 84.2461 100.963C84.3164 101.021 84.3955 101.051 84.4834 101.051C84.5771 101.051 84.6592 101.03 84.7295 100.989C84.8525 100.913 85.0898 100.699 85.4414 100.348V100.84C84.7852 101.719 84.1582 102.158 83.5605 102.158C83.2734 102.158 83.0449 102.059 82.875 101.859C82.7051 101.66 82.6172 101.32 82.6113 100.84ZM82.6113 100.269V97.2012C81.7266 97.5527 81.1553 97.8018 80.8975 97.9482C80.4346 98.2061 80.1035 98.4756 79.9043 98.7568C79.7051 99.0381 79.6055 99.3457 79.6055 99.6797C79.6055 100.102 79.7314 100.453 79.9834 100.734C80.2354 101.01 80.5254 101.147 80.8535 101.147C81.2988 101.147 81.8848 100.854 82.6113 100.269ZM88.4033 93.7119V95.5225C89.0771 94.3154 89.7686 93.7119 90.4775 93.7119C90.7998 93.7119 91.0664 93.8115 91.2773 94.0107C91.4883 94.2041 91.5938 94.4297 91.5938 94.6875C91.5938 94.916 91.5176 95.1094 91.3652 95.2676C91.2129 95.4258 91.0312 95.5049 90.8203 95.5049C90.6152 95.5049 90.3838 95.4053 90.126 95.2061C89.874 95.001 89.6865 94.8984 89.5635 94.8984C89.458 94.8984 89.3438 94.957 89.2207 95.0742C88.957 95.3145 88.6846 95.71 88.4033 96.2607V100.119C88.4033 100.564 88.459 100.901 88.5703 101.13C88.6465 101.288 88.7812 101.42 88.9746 101.525C89.168 101.631 89.4463 101.684 89.8096 101.684V102H85.6875V101.684C86.0977 101.684 86.4023 101.619 86.6016 101.49C86.748 101.396 86.8506 101.247 86.9092 101.042C86.9385 100.942 86.9531 100.658 86.9531 100.189V97.0693C86.9531 96.1318 86.9326 95.5752 86.8916 95.3994C86.8564 95.2178 86.7861 95.0859 86.6807 95.0039C86.5811 94.9219 86.4551 94.8809 86.3027 94.8809C86.1211 94.8809 85.916 94.9248 85.6875 95.0127L85.5996 94.6963L88.0342 93.7119H88.4033ZM94.3799 91.3037V93.9492H96.2607V94.5645H94.3799V99.7852C94.3799 100.307 94.4531 100.658 94.5996 100.84C94.752 101.021 94.9453 101.112 95.1797 101.112C95.373 101.112 95.5605 101.054 95.7422 100.937C95.9238 100.813 96.0645 100.635 96.1641 100.4H96.5068C96.3018 100.975 96.0117 101.408 95.6367 101.701C95.2617 101.988 94.875 102.132 94.4766 102.132C94.207 102.132 93.9434 102.059 93.6855 101.912C93.4277 101.76 93.2373 101.546 93.1143 101.271C92.9912 100.989 92.9297 100.559 92.9297 99.9785V94.5645H91.6553V94.2744C91.9775 94.1455 92.3057 93.9287 92.6396 93.624C92.9795 93.3135 93.2812 92.9473 93.5449 92.5254C93.6797 92.3027 93.8672 91.8955 94.1074 91.3037H94.3799ZM99.0996 89.502C99.3457 89.502 99.5537 89.5898 99.7236 89.7656C99.8994 89.9355 99.9873 90.1436 99.9873 90.3896C99.9873 90.6357 99.8994 90.8467 99.7236 91.0225C99.5537 91.1982 99.3457 91.2861 99.0996 91.2861C98.8535 91.2861 98.6426 91.1982 98.4668 91.0225C98.291 90.8467 98.2031 90.6357 98.2031 90.3896C98.2031 90.1436 98.2881 89.9355 98.458 89.7656C98.6338 89.5898 98.8477 89.502 99.0996 89.502ZM99.8291 93.7119V100.181C99.8291 100.685 99.8643 101.021 99.9346 101.191C100.011 101.355 100.119 101.479 100.26 101.561C100.406 101.643 100.67 101.684 101.051 101.684V102H97.1396V101.684C97.5322 101.684 97.7959 101.646 97.9307 101.569C98.0654 101.493 98.1709 101.367 98.2471 101.191C98.3291 101.016 98.3701 100.679 98.3701 100.181V97.0781C98.3701 96.2051 98.3438 95.6396 98.291 95.3818C98.25 95.1943 98.1855 95.0654 98.0977 94.9951C98.0098 94.9189 97.8896 94.8809 97.7373 94.8809C97.5732 94.8809 97.374 94.9248 97.1396 95.0127L97.0166 94.6963L99.4424 93.7119H99.8291ZM108.899 98.9414C108.683 100.002 108.258 100.819 107.625 101.394C106.992 101.962 106.292 102.246 105.524 102.246C104.61 102.246 103.813 101.862 103.134 101.095C102.454 100.327 102.114 99.29 102.114 97.9834C102.114 96.7178 102.489 95.6895 103.239 94.8984C103.995 94.1074 104.9 93.7119 105.955 93.7119C106.746 93.7119 107.396 93.9229 107.906 94.3447C108.416 94.7607 108.671 95.1943 108.671 95.6455C108.671 95.8682 108.598 96.0498 108.451 96.1904C108.311 96.3252 108.111 96.3926 107.854 96.3926C107.508 96.3926 107.247 96.2812 107.071 96.0586C106.972 95.9355 106.904 95.7012 106.869 95.3555C106.84 95.0098 106.723 94.7461 106.518 94.5645C106.312 94.3887 106.028 94.3008 105.665 94.3008C105.079 94.3008 104.607 94.5176 104.25 94.9512C103.775 95.5254 103.538 96.2842 103.538 97.2275C103.538 98.1885 103.772 99.0381 104.241 99.7764C104.716 100.509 105.354 100.875 106.157 100.875C106.731 100.875 107.247 100.679 107.704 100.286C108.026 100.017 108.34 99.5273 108.645 98.8184L108.899 98.9414ZM112.828 89.502V100.181C112.828 100.685 112.863 101.019 112.934 101.183C113.01 101.347 113.124 101.473 113.276 101.561C113.429 101.643 113.713 101.684 114.129 101.684V102H110.183V101.684C110.552 101.684 110.804 101.646 110.938 101.569C111.073 101.493 111.179 101.367 111.255 101.191C111.331 101.016 111.369 100.679 111.369 100.181V92.8682C111.369 91.96 111.349 91.4033 111.308 91.1982C111.267 90.9873 111.199 90.8438 111.105 90.7676C111.018 90.6914 110.903 90.6533 110.763 90.6533C110.61 90.6533 110.417 90.7002 110.183 90.7939L110.033 90.4863L112.433 89.502H112.828ZM116.423 96.9814C116.417 98.1768 116.707 99.1143 117.293 99.7939C117.879 100.474 118.567 100.813 119.358 100.813C119.886 100.813 120.343 100.67 120.729 100.383C121.122 100.09 121.45 99.5918 121.714 98.8887L121.986 99.0645C121.863 99.8672 121.506 100.6 120.914 101.262C120.322 101.918 119.581 102.246 118.69 102.246C117.724 102.246 116.895 101.871 116.203 101.121C115.518 100.365 115.175 99.3516 115.175 98.0801C115.175 96.7031 115.526 95.6309 116.229 94.8633C116.938 94.0898 117.826 93.7031 118.893 93.7031C119.795 93.7031 120.536 94.002 121.116 94.5996C121.696 95.1914 121.986 95.9854 121.986 96.9814H116.423ZM116.423 96.4717H120.149C120.12 95.9561 120.059 95.5928 119.965 95.3818C119.818 95.0537 119.599 94.7959 119.306 94.6084C119.019 94.4209 118.717 94.3271 118.4 94.3271C117.914 94.3271 117.478 94.5176 117.091 94.8984C116.71 95.2734 116.487 95.7979 116.423 96.4717ZM128.271 93.7119V96.4541H127.98C127.758 95.5928 127.471 95.0068 127.119 94.6963C126.773 94.3857 126.331 94.2305 125.792 94.2305C125.382 94.2305 125.051 94.3389 124.799 94.5557C124.547 94.7725 124.421 95.0127 124.421 95.2764C124.421 95.6045 124.515 95.8857 124.702 96.1201C124.884 96.3604 125.253 96.6152 125.81 96.8848L127.093 97.5088C128.282 98.0889 128.877 98.8535 128.877 99.8027C128.877 100.535 128.599 101.127 128.042 101.578C127.491 102.023 126.873 102.246 126.188 102.246C125.695 102.246 125.133 102.158 124.5 101.982C124.307 101.924 124.148 101.895 124.025 101.895C123.891 101.895 123.785 101.971 123.709 102.123H123.419V99.249H123.709C123.873 100.069 124.187 100.688 124.649 101.104C125.112 101.52 125.631 101.728 126.205 101.728C126.609 101.728 126.938 101.61 127.189 101.376C127.447 101.136 127.576 100.849 127.576 100.515C127.576 100.11 127.433 99.7705 127.146 99.4951C126.864 99.2197 126.299 98.8711 125.449 98.4492C124.6 98.0273 124.043 97.6465 123.779 97.3066C123.516 96.9727 123.384 96.5508 123.384 96.041C123.384 95.3789 123.609 94.8252 124.061 94.3799C124.518 93.9346 125.106 93.7119 125.827 93.7119C126.144 93.7119 126.527 93.7793 126.979 93.9141C127.277 94.002 127.477 94.0459 127.576 94.0459C127.67 94.0459 127.743 94.0254 127.796 93.9844C127.849 93.9434 127.91 93.8525 127.98 93.7119H128.271Z" fill="white"/>
<path d="M0 6C0 2.68629 2.68629 0 6 0H154C157.314 0 160 2.68629 160 6V50H0V6Z" fill="#D1E7E8"/>
<path d="M160.007 162.021C160.007 165.335 157.321 168.021 154.007 168.021L6.00684 168.021C2.69313 168.021 0.00683594 165.335 0.00683594 162.021V118.021L160.007 118.021V162.021Z" fill="#438086"/>
</svg>
